<mxfile host="app.diagrams.net" agent="Mozilla/5.0 (X11; Ubuntu; Linux x86_64; rv:139.0) Gecko/20100101 Firefox/139.0" version="27.1.6">
  <diagram name="Page-1" id="wk4TNctgmYJ9diqr8izL">
    <mxGraphModel dx="2155" dy="795" grid="1" gridSize="10" guides="1" tooltips="1" connect="1" arrows="1" fold="1" page="1" pageScale="1" pageWidth="850" pageHeight="1100" math="0" shadow="0">
      <root>
        <mxCell id="0" />
        <mxCell id="1" parent="0" />
        <mxCell id="4AGOOtHYT0yI-UUjH2lG-16" value="" style="rounded=0;whiteSpace=wrap;html=1;fillColor=#f5f5f5;fontColor=#333333;strokeColor=#666666;fontSize=13;" vertex="1" parent="1">
          <mxGeometry x="80" y="480" width="572.5" height="160" as="geometry" />
        </mxCell>
        <mxCell id="4AGOOtHYT0yI-UUjH2lG-11" value="" style="edgeStyle=orthogonalEdgeStyle;rounded=0;orthogonalLoop=1;jettySize=auto;html=1;fontSize=13;" edge="1" parent="1" source="4AGOOtHYT0yI-UUjH2lG-3" target="4AGOOtHYT0yI-UUjH2lG-7">
          <mxGeometry relative="1" as="geometry" />
        </mxCell>
        <mxCell id="4AGOOtHYT0yI-UUjH2lG-27" value="" style="edgeStyle=orthogonalEdgeStyle;rounded=0;orthogonalLoop=1;jettySize=auto;html=1;fontSize=13;" edge="1" parent="1" source="4AGOOtHYT0yI-UUjH2lG-3" target="4AGOOtHYT0yI-UUjH2lG-21">
          <mxGeometry relative="1" as="geometry" />
        </mxCell>
        <mxCell id="4AGOOtHYT0yI-UUjH2lG-3" value="&lt;div&gt;&lt;b&gt;Define Objectives of a Solution&lt;/b&gt;&lt;/div&gt;&lt;div&gt;&lt;br&gt;&lt;/div&gt;&lt;div&gt;What would a better artifact accomplish?&lt;/div&gt;" style="html=1;whiteSpace=wrap;fillColor=#f5f5f5;fontColor=#333333;strokeColor=#666666;fontSize=13;" vertex="1" parent="1">
          <mxGeometry x="240" y="250" width="100" height="160" as="geometry" />
        </mxCell>
        <mxCell id="4AGOOtHYT0yI-UUjH2lG-6" value="" style="edgeStyle=orthogonalEdgeStyle;rounded=0;orthogonalLoop=1;jettySize=auto;html=1;fontSize=13;" edge="1" parent="1" source="4AGOOtHYT0yI-UUjH2lG-4" target="4AGOOtHYT0yI-UUjH2lG-3">
          <mxGeometry relative="1" as="geometry" />
        </mxCell>
        <mxCell id="4AGOOtHYT0yI-UUjH2lG-26" value="" style="edgeStyle=orthogonalEdgeStyle;rounded=0;orthogonalLoop=1;jettySize=auto;html=1;fontSize=13;" edge="1" parent="1" source="4AGOOtHYT0yI-UUjH2lG-4" target="4AGOOtHYT0yI-UUjH2lG-20">
          <mxGeometry relative="1" as="geometry" />
        </mxCell>
        <mxCell id="4AGOOtHYT0yI-UUjH2lG-4" value="&lt;div&gt;&lt;b&gt;Problem Identification and Motivation&lt;/b&gt;&lt;/div&gt;&lt;div&gt;&lt;br&gt;&lt;/div&gt;&lt;div&gt;Show Importance&lt;/div&gt;" style="html=1;whiteSpace=wrap;fillColor=#f5f5f5;fontColor=#333333;strokeColor=#666666;fontSize=13;" vertex="1" parent="1">
          <mxGeometry x="100" y="251.25" width="100" height="157.5" as="geometry" />
        </mxCell>
        <mxCell id="4AGOOtHYT0yI-UUjH2lG-12" value="" style="edgeStyle=orthogonalEdgeStyle;rounded=0;orthogonalLoop=1;jettySize=auto;html=1;fontSize=13;" edge="1" parent="1" source="4AGOOtHYT0yI-UUjH2lG-7" target="4AGOOtHYT0yI-UUjH2lG-8">
          <mxGeometry relative="1" as="geometry" />
        </mxCell>
        <mxCell id="4AGOOtHYT0yI-UUjH2lG-28" value="" style="edgeStyle=orthogonalEdgeStyle;rounded=0;orthogonalLoop=1;jettySize=auto;html=1;fontSize=13;" edge="1" parent="1" source="4AGOOtHYT0yI-UUjH2lG-7" target="4AGOOtHYT0yI-UUjH2lG-22">
          <mxGeometry relative="1" as="geometry" />
        </mxCell>
        <mxCell id="4AGOOtHYT0yI-UUjH2lG-7" value="&lt;div&gt;&lt;b&gt;Design and Development&lt;/b&gt;&lt;/div&gt;&lt;div&gt;&lt;br&gt;&lt;/div&gt;&lt;div&gt;Artifact&lt;/div&gt;" style="html=1;whiteSpace=wrap;fillColor=#f5f5f5;fontColor=#333333;strokeColor=#666666;fontSize=13;" vertex="1" parent="1">
          <mxGeometry x="385" y="250" width="100" height="160" as="geometry" />
        </mxCell>
        <mxCell id="4AGOOtHYT0yI-UUjH2lG-13" value="" style="edgeStyle=orthogonalEdgeStyle;rounded=0;orthogonalLoop=1;jettySize=auto;html=1;fontSize=13;" edge="1" parent="1" source="4AGOOtHYT0yI-UUjH2lG-8" target="4AGOOtHYT0yI-UUjH2lG-9">
          <mxGeometry relative="1" as="geometry" />
        </mxCell>
        <mxCell id="4AGOOtHYT0yI-UUjH2lG-29" value="" style="edgeStyle=orthogonalEdgeStyle;rounded=0;orthogonalLoop=1;jettySize=auto;html=1;fontSize=13;" edge="1" parent="1" source="4AGOOtHYT0yI-UUjH2lG-8" target="4AGOOtHYT0yI-UUjH2lG-24">
          <mxGeometry relative="1" as="geometry" />
        </mxCell>
        <mxCell id="4AGOOtHYT0yI-UUjH2lG-8" value="&lt;div&gt;&lt;b&gt;Demonstration&lt;/b&gt;&lt;/div&gt;&lt;div&gt;&lt;br&gt;&lt;/div&gt;&lt;div&gt;Use artifact to solve problem&lt;/div&gt;" style="html=1;whiteSpace=wrap;fillColor=#f5f5f5;fontColor=#333333;strokeColor=#666666;fontSize=13;" vertex="1" parent="1">
          <mxGeometry x="530" y="250" width="100" height="160" as="geometry" />
        </mxCell>
        <mxCell id="4AGOOtHYT0yI-UUjH2lG-14" value="" style="edgeStyle=orthogonalEdgeStyle;rounded=0;orthogonalLoop=1;jettySize=auto;html=1;fontSize=13;" edge="1" parent="1" source="4AGOOtHYT0yI-UUjH2lG-9" target="4AGOOtHYT0yI-UUjH2lG-10">
          <mxGeometry relative="1" as="geometry" />
        </mxCell>
        <mxCell id="4AGOOtHYT0yI-UUjH2lG-9" value="&lt;div&gt;&lt;b&gt;Evaluation&lt;/b&gt;&lt;/div&gt;&lt;div&gt;&lt;br&gt;&lt;/div&gt;&lt;div&gt;Observe how effective&lt;/div&gt;" style="html=1;whiteSpace=wrap;fillColor=#f5f5f5;fontColor=#333333;strokeColor=#666666;fontSize=13;" vertex="1" parent="1">
          <mxGeometry x="675" y="250" width="95" height="160" as="geometry" />
        </mxCell>
        <mxCell id="4AGOOtHYT0yI-UUjH2lG-10" value="&lt;div&gt;&lt;b&gt;Communication&lt;/b&gt;&lt;/div&gt;&lt;div&gt;&lt;br&gt;&lt;/div&gt;&lt;div&gt;Scholarly publications&lt;/div&gt;" style="html=1;whiteSpace=wrap;fillColor=#f5f5f5;fontColor=#333333;strokeColor=#666666;fontSize=13;" vertex="1" parent="1">
          <mxGeometry x="820" y="250" width="100" height="160" as="geometry" />
        </mxCell>
        <mxCell id="4AGOOtHYT0yI-UUjH2lG-17" value="" style="endArrow=classic;html=1;rounded=0;exitX=0.5;exitY=0;exitDx=0;exitDy=0;edgeStyle=orthogonalEdgeStyle;entryX=0.5;entryY=0;entryDx=0;entryDy=0;fontSize=13;" edge="1" parent="1" source="4AGOOtHYT0yI-UUjH2lG-10" target="4AGOOtHYT0yI-UUjH2lG-3">
          <mxGeometry width="50" height="50" relative="1" as="geometry">
            <mxPoint x="830" y="210" as="sourcePoint" />
            <mxPoint x="710" y="160" as="targetPoint" />
            <Array as="points">
              <mxPoint x="870" y="200" />
              <mxPoint x="290" y="200" />
            </Array>
          </mxGeometry>
        </mxCell>
        <mxCell id="4AGOOtHYT0yI-UUjH2lG-18" value="" style="endArrow=classic;html=1;rounded=0;exitX=0.5;exitY=0;exitDx=0;exitDy=0;edgeStyle=orthogonalEdgeStyle;entryX=0.5;entryY=0;entryDx=0;entryDy=0;fontSize=13;" edge="1" parent="1" source="4AGOOtHYT0yI-UUjH2lG-10" target="4AGOOtHYT0yI-UUjH2lG-7">
          <mxGeometry width="50" height="50" relative="1" as="geometry">
            <mxPoint x="880" y="260" as="sourcePoint" />
            <mxPoint x="300" y="260" as="targetPoint" />
            <Array as="points">
              <mxPoint x="870" y="200" />
              <mxPoint x="435" y="200" />
            </Array>
          </mxGeometry>
        </mxCell>
        <mxCell id="4AGOOtHYT0yI-UUjH2lG-19" value="" style="endArrow=classic;html=1;rounded=0;exitX=0.5;exitY=0;exitDx=0;exitDy=0;edgeStyle=orthogonalEdgeStyle;entryX=0.5;entryY=0;entryDx=0;entryDy=0;fontSize=13;" edge="1" parent="1" source="4AGOOtHYT0yI-UUjH2lG-9" target="4AGOOtHYT0yI-UUjH2lG-7">
          <mxGeometry width="50" height="50" relative="1" as="geometry">
            <mxPoint x="880" y="260" as="sourcePoint" />
            <mxPoint x="450" y="260" as="targetPoint" />
            <Array as="points">
              <mxPoint x="723" y="200" />
              <mxPoint x="435" y="200" />
            </Array>
          </mxGeometry>
        </mxCell>
        <mxCell id="4AGOOtHYT0yI-UUjH2lG-20" value="Problem Centered Initiation" style="ellipse;whiteSpace=wrap;html=1;aspect=fixed;fillColor=#f8cecc;strokeColor=#b85450;fontSize=13;" vertex="1" parent="1">
          <mxGeometry x="105" y="500" width="90" height="90" as="geometry" />
        </mxCell>
        <mxCell id="4AGOOtHYT0yI-UUjH2lG-21" value="Objective Centered Solution" style="ellipse;whiteSpace=wrap;html=1;aspect=fixed;fillColor=#f8cecc;strokeColor=#b85450;fontSize=13;" vertex="1" parent="1">
          <mxGeometry x="245" y="500" width="90" height="90" as="geometry" />
        </mxCell>
        <mxCell id="4AGOOtHYT0yI-UUjH2lG-22" value="Design and Development Centered Initiation" style="ellipse;whiteSpace=wrap;html=1;aspect=fixed;fillColor=#f8cecc;strokeColor=#b85450;fontSize=13;" vertex="1" parent="1">
          <mxGeometry x="390" y="500" width="90" height="90" as="geometry" />
        </mxCell>
        <mxCell id="4AGOOtHYT0yI-UUjH2lG-24" value="Client/Context Initiated" style="ellipse;whiteSpace=wrap;html=1;aspect=fixed;fillColor=#f8cecc;strokeColor=#b85450;fontSize=13;" vertex="1" parent="1">
          <mxGeometry x="535" y="500" width="90" height="90" as="geometry" />
        </mxCell>
        <mxCell id="4AGOOtHYT0yI-UUjH2lG-30" value="" style="curved=1;endArrow=classic;html=1;rounded=0;exitX=0;exitY=0.5;exitDx=0;exitDy=0;fontSize=13;" edge="1" parent="1" source="4AGOOtHYT0yI-UUjH2lG-16">
          <mxGeometry width="50" height="50" relative="1" as="geometry">
            <mxPoint x="-20" y="520" as="sourcePoint" />
            <mxPoint x="70" y="340" as="targetPoint" />
            <Array as="points">
              <mxPoint x="30" y="520" />
              <mxPoint y="390" />
            </Array>
          </mxGeometry>
        </mxCell>
        <mxCell id="4AGOOtHYT0yI-UUjH2lG-31" value="Process Iteration" style="text;html=1;align=center;verticalAlign=middle;whiteSpace=wrap;rounded=0;fontSize=13;" vertex="1" parent="1">
          <mxGeometry x="532.5" y="160" width="95" height="30" as="geometry" />
        </mxCell>
        <mxCell id="4AGOOtHYT0yI-UUjH2lG-32" value="Normal Process Sequence" style="text;html=1;align=center;verticalAlign=middle;whiteSpace=wrap;rounded=0;fontSize=13;" vertex="1" parent="1">
          <mxGeometry x="-50" y="360" width="60" height="30" as="geometry" />
        </mxCell>
        <mxCell id="4AGOOtHYT0yI-UUjH2lG-33" value="Possible Research Entrypoints" style="text;html=1;align=center;verticalAlign=middle;whiteSpace=wrap;rounded=0;fontSize=13;" vertex="1" parent="1">
          <mxGeometry x="273.75" y="610" width="185" height="30" as="geometry" />
        </mxCell>
      </root>
    </mxGraphModel>
  </diagram>
</mxfile>
